<?xml version="1.0" encoding="iso-8859-1"?>
<!-- Generator: Adobe Illustrator 18.1.1, SVG Export Plug-In . SVG Version: 6.00 Build 0)  -->
<svg xmlns="http://www.w3.org/2000/svg" xmlns:xlink="http://www.w3.org/1999/xlink" version="1.1" id="Capa_1" x="0px" y="0px" viewBox="0 0 249.65 249.65" style="enable-background:new 0 0 249.65 249.65;" xml:space="preserve" width="512px" height="512px">
<g>
	<path d="M205.998,158.078c12.015,0,23.16-9.638,24.884-21.528l8.741-60.156   c1.724-11.89-6.576-22.376-18.542-23.431L52.959,38.212L34.162,12.49C27.07,2.793,17.372-2.342,12.498,1.041   c-4.873,3.372-2.964,13.886,4.275,23.475l17.862,23.682l29.969,113.214v28.299c-16.557,0-29.969,13.418-29.969,29.969   c0,16.557,13.413,29.969,29.969,29.969c15.028,0,27.429-11.058,29.599-25.482h73.993c2.17,14.419,14.571,25.482,29.594,25.482   c16.551,0,29.964-13.413,29.964-29.969c0-16.551-13.413-29.969-29.964-29.969c-7.838,0-14.968,3.019-20.304,7.941H94.574v-39.575   C94.574,158.078,205.998,158.078,205.998,158.078z" fill="#006DF0"/>
</g>
</svg>
